<svg width="468" height="369" viewBox="0 0 468 369" fill="none" xmlns="http://www.w3.org/2000/svg">
<mask id="mask0_22_2" style="mask-type:luminance" maskUnits="userSpaceOnUse" x="166" y="72" width="170" height="166">
<path d="M166.667 72H336V237.333H166.667V72Z" fill="white"/>
</mask>
<g mask="url(#mask0_22_2)">
<mask id="mask1_22_2" style="mask-type:luminance" maskUnits="userSpaceOnUse" x="-1" y="0" width="386" height="369">
<path d="M247.771 0.00521088L384.385 197.068L136.411 368.969L-0.197998 171.906L247.771 0.00521088Z" fill="white"/>
</mask>
<g mask="url(#mask1_22_2)">
<mask id="mask2_22_2" style="mask-type:luminance" maskUnits="userSpaceOnUse" x="-1" y="0" width="386" height="369">
<path d="M247.771 0.00521088L384.385 197.068L136.411 368.969L-0.197998 171.906L247.771 0.00521088Z" fill="white"/>
</mask>
<g mask="url(#mask2_22_2)">
<path fill-rule="evenodd" clip-rule="evenodd" d="M318.318 154.417C343.792 145.932 340.141 133.24 313.391 132.625L273.995 137.755L253.932 111.432L257.047 110.984C259.25 110.667 260.818 108.568 260.505 106.37C260.12 104.214 258.141 102.667 255.937 102.979L248.349 104.104L224.375 72.7292L212.932 74.1094L241.786 142.635L193.245 151.885L176.245 131L167.911 131.635L178.646 158.177C175.276 158.698 173.776 161.047 172.417 163.302C174.422 166.047 176.427 166.469 179.578 166.505L176.463 193.87L184.271 193.198L195.786 167.771L245.307 164.297L236.26 237.219L246.88 235.807L260.474 202.182L260.656 202.156L268.979 200.922C271.182 200.604 272.682 198.557 272.37 196.354C272.052 194.156 270.005 192.651 267.802 192.969L264.068 193.542L277.729 159.87L318.318 154.417Z" fill="#6C3A4B"/>
</g>
</g>
</g>
<mask id="mask3_22_2" style="mask-type:luminance" maskUnits="userSpaceOnUse" x="76" y="141" width="90" height="214">
<path d="M76 141.333H165.333V354.667H76V141.333Z" fill="white"/>
</mask>
<g mask="url(#mask3_22_2)">
<mask id="mask4_22_2" style="mask-type:luminance" maskUnits="userSpaceOnUse" x="-1" y="0" width="386" height="369">
<path d="M247.771 0.00520325L384.385 197.068L136.411 368.969L-0.197876 171.906L247.771 0.00520325Z" fill="white"/>
</mask>
<g mask="url(#mask4_22_2)">
<mask id="mask5_22_2" style="mask-type:luminance" maskUnits="userSpaceOnUse" x="-1" y="0" width="386" height="369">
<path d="M247.771 0.00520325L384.385 197.068L136.411 368.969L-0.197876 171.906L247.771 0.00520325Z" fill="white"/>
</mask>
<g mask="url(#mask5_22_2)">
<path fill-rule="evenodd" clip-rule="evenodd" d="M161.161 142.266L164.089 160.302C36.2396 177.339 98.7708 294.01 156.99 354.281C81.5312 288.922 21.8906 156.635 161.161 142.266Z" fill="#6C3A4B"/>
</g>
</g>
</g>
<mask id="mask6_22_2" style="mask-type:luminance" maskUnits="userSpaceOnUse" x="94" y="172" width="74" height="178">
<path d="M94.6666 172H168V349.333H94.6666V172Z" fill="white"/>
</mask>
<g mask="url(#mask6_22_2)">
<mask id="mask7_22_2" style="mask-type:luminance" maskUnits="userSpaceOnUse" x="-1" y="0" width="386" height="369">
<path d="M247.771 0.00520325L384.385 197.068L136.411 368.969L-0.197998 171.906L247.771 0.00520325Z" fill="white"/>
</mask>
<g mask="url(#mask7_22_2)">
<mask id="mask8_22_2" style="mask-type:luminance" maskUnits="userSpaceOnUse" x="-1" y="0" width="386" height="369">
<path d="M247.771 0.00520325L384.385 197.068L136.411 368.969L-0.197998 171.906L247.771 0.00520325Z" fill="white"/>
</mask>
<g mask="url(#mask8_22_2)">
<path fill-rule="evenodd" clip-rule="evenodd" d="M164.865 172.771L167.391 187.755C61.2603 201.938 113.109 298.693 161.51 348.729C98.8489 294.563 49.3176 184.708 164.865 172.771Z" fill="#6C3A4B"/>
</g>
</g>
</g>
<path d="M127.106 281.824V237.074H133.252V256.303H156.835V237.074H162.981V281.824H156.835V261.741H133.252V281.824H127.106Z" fill="#6C3A4B"/>
<path d="M193.79 282.657C190.248 282.657 187.045 282.053 184.186 280.845C181.337 279.626 178.899 277.949 176.873 275.824C174.842 273.689 173.274 271.215 172.165 268.407C171.066 265.59 170.519 262.584 170.519 259.386C170.519 256.235 171.066 253.256 172.165 250.449C173.274 247.631 174.842 245.157 176.873 243.032C178.899 240.897 181.337 239.23 184.186 238.032C187.045 236.84 190.248 236.241 193.79 236.241C197.332 236.241 200.524 236.84 203.373 238.032C206.233 239.23 208.676 240.897 210.707 243.032C212.733 245.157 214.295 247.631 215.394 250.449C216.504 253.256 217.061 256.256 217.061 259.449C217.061 262.605 216.504 265.59 215.394 268.407C214.295 271.215 212.733 273.689 210.707 275.824C208.676 277.949 206.233 279.626 203.373 280.845C200.524 282.053 197.332 282.657 193.79 282.657ZM193.79 277.22C196.217 277.22 198.478 276.777 200.561 275.886C202.655 274.985 204.483 273.73 206.04 272.116C207.592 270.491 208.795 268.605 209.644 266.449C210.504 264.298 210.936 261.944 210.936 259.386C210.936 256.876 210.504 254.532 209.644 252.366C208.795 250.189 207.603 248.298 206.061 246.699C204.53 245.09 202.712 243.855 200.603 242.991C198.488 242.116 196.217 241.678 193.79 241.678C191.316 241.678 189.03 242.116 186.936 242.991C184.853 243.855 183.04 245.09 181.498 246.699C179.967 248.298 178.78 250.189 177.936 252.366C177.087 254.532 176.665 256.897 176.665 259.449C176.665 261.965 177.087 264.298 177.936 266.449C178.78 268.605 179.967 270.491 181.498 272.116C183.04 273.73 184.853 274.985 186.936 275.886C189.03 276.777 191.316 277.22 193.79 277.22Z" fill="#6C3A4B"/>
<path d="M235.99 281.824C233.558 281.824 231.454 281.303 229.678 280.261C227.912 279.22 226.553 277.798 225.594 275.991C224.636 274.173 224.157 272.131 224.157 269.866V237.074H230.282V270.636C230.282 272.303 230.803 273.678 231.844 274.761C232.897 275.845 234.282 276.386 235.99 276.386H247.99V281.824H235.99Z" fill="#6C3A4B"/>
<path d="M253.247 281.824V276.386H261.872V242.511H253.247V237.074H276.58V242.511H268.018V276.386H276.58V281.824H253.247Z" fill="#6C3A4B"/>
<path d="M284.749 281.824V237.074H299.083C303.843 237.074 307.963 238.032 311.437 239.949C314.921 241.866 317.624 244.511 319.541 247.886C321.458 251.251 322.416 255.105 322.416 259.449C322.416 263.798 321.458 267.657 319.541 271.032C317.624 274.397 314.921 277.032 311.437 278.949C307.963 280.866 303.843 281.824 299.083 281.824H284.749ZM290.895 276.386H299.145C302.463 276.386 305.416 275.709 307.999 274.345C310.583 272.985 312.614 271.043 314.104 268.511C315.588 265.97 316.333 262.949 316.333 259.449C316.333 255.907 315.588 252.881 314.104 250.366C312.614 247.855 310.583 245.918 307.999 244.553C305.416 243.194 302.463 242.511 299.145 242.511H290.895V276.386Z" fill="#6C3A4B"/>
<path d="M323.298 281.824L338.528 241.345C339.205 239.595 340.142 238.319 341.34 237.511C342.533 236.709 343.913 236.303 345.486 236.303C347.069 236.303 348.465 236.699 349.673 237.491C350.892 238.272 351.824 239.532 352.465 241.282L367.736 281.824H361.028L357.132 271.011H333.715L329.757 281.824H323.298ZM335.632 265.574H355.278L347.278 243.407C347.069 242.855 346.83 242.428 346.569 242.136C346.319 241.834 345.955 241.678 345.486 241.678C345.054 241.678 344.715 241.834 344.465 242.136C344.215 242.428 343.996 242.855 343.819 243.407L335.632 265.574Z" fill="#6C3A4B"/>
<path d="M379.879 281.824C377.098 281.824 374.9 280.985 373.275 279.303C371.66 277.626 370.858 275.548 370.858 273.074C370.858 271.491 371.176 270.147 371.816 269.032C372.452 267.923 373.504 266.772 374.962 265.574L395.233 248.824C395.952 248.272 396.462 247.761 396.754 247.303C397.056 246.834 397.212 246.256 397.212 245.574C397.212 245.064 397.056 244.574 396.754 244.116C396.462 243.647 396.087 243.261 395.629 242.97C395.181 242.668 394.681 242.511 394.129 242.511H372.275V237.074H394.712C396.546 237.074 398.129 237.459 399.462 238.22C400.806 238.985 401.837 240.022 402.546 241.324C403.254 242.616 403.608 244.074 403.608 245.699C403.608 247.282 403.275 248.689 402.608 249.907C401.941 251.116 400.926 252.272 399.566 253.366L379.296 270.053C378.796 270.444 378.379 270.793 378.046 271.095C377.723 271.386 377.509 271.694 377.4 272.011C377.301 272.334 377.254 272.751 377.254 273.261C377.254 273.777 377.389 274.277 377.671 274.761C377.947 275.251 378.327 275.647 378.816 275.949C379.316 276.241 379.884 276.386 380.525 276.386H403.608V281.824H379.879Z" fill="#6C3A4B"/>
<path d="M422.456 281.824C419.982 281.824 417.795 281.241 415.894 280.074C414.003 278.897 412.524 277.345 411.456 275.428C410.383 273.511 409.852 271.423 409.852 269.157C409.852 267.116 410.331 265.199 411.289 263.407C412.248 261.616 413.644 260.215 415.477 259.199C413.685 258.048 412.315 256.616 411.373 254.907C410.44 253.199 409.977 251.407 409.977 249.532C409.977 247.23 410.519 245.136 411.602 243.261C412.696 241.386 414.185 239.886 416.06 238.761C417.935 237.636 420.003 237.074 422.269 237.074H439.977V242.511H422.956C421.633 242.511 420.461 242.834 419.435 243.47C418.42 244.11 417.612 244.949 417.019 245.991C416.42 247.032 416.123 248.215 416.123 249.532C416.123 250.772 416.425 251.902 417.039 252.928C417.664 253.944 418.508 254.761 419.581 255.386C420.649 256.001 421.821 256.303 423.102 256.303H437.602V261.741H423.539C421.967 261.741 420.612 262.095 419.477 262.803C418.352 263.511 417.477 264.428 416.852 265.553C416.237 266.678 415.935 267.881 415.935 269.157C415.935 270.439 416.232 271.631 416.831 272.741C417.425 273.855 418.274 274.741 419.373 275.407C420.482 276.064 421.789 276.386 423.289 276.386H439.977V281.824H422.456Z" fill="#6C3A4B"/>
</svg>
