<svg width="402" height="402" viewBox="0 0 402 402" fill="none" xmlns="http://www.w3.org/2000/svg">
<g clip-path="url(#clip0_12_4)">
<mask id="mask0_12_4" style="mask-type:luminance" maskUnits="userSpaceOnUse" x="0" y="0" width="402" height="402">
<path d="M0 0H401.245V401.245H0V0Z" fill="white"/>
</mask>
<g mask="url(#mask0_12_4)">
<mask id="mask1_12_4" style="mask-type:luminance" maskUnits="userSpaceOnUse" x="0" y="0" width="402" height="402">
<path d="M200.62 0C89.8229 0 0 89.8229 0 200.62C0 311.422 89.8229 401.245 200.62 401.245C311.422 401.245 401.245 311.422 401.245 200.62C401.245 89.8229 311.422 0 200.62 0Z" fill="white"/>
</mask>
<g mask="url(#mask1_12_4)">
<mask id="mask2_12_4" style="mask-type:luminance" maskUnits="userSpaceOnUse" x="0" y="0" width="402" height="402">
<path d="M401.333 0H0V401.333H401.333V0Z" fill="white"/>
</mask>
<g mask="url(#mask2_12_4)">
<mask id="mask3_12_4" style="mask-type:luminance" maskUnits="userSpaceOnUse" x="0" y="0" width="402" height="402">
<path d="M0 0H401.245V401.245H0V0Z" fill="white"/>
</mask>
<g mask="url(#mask3_12_4)">
<mask id="mask4_12_4" style="mask-type:luminance" maskUnits="userSpaceOnUse" x="0" y="0" width="402" height="402">
<path d="M200.62 0C89.8229 0 0 89.8229 0 200.62C0 311.422 89.8229 401.245 200.62 401.245C311.422 401.245 401.245 311.422 401.245 200.62C401.245 89.8229 311.422 0 200.62 0Z" fill="white"/>
</mask>
<g mask="url(#mask4_12_4)">
<path d="M0 0H401.245V401.245H0V0Z" fill="#6C3A4B"/>
</g>
</g>
</g>
</g>
</g>
<mask id="mask5_12_4" style="mask-type:luminance" maskUnits="userSpaceOnUse" x="165" y="172" width="71" height="71">
<path d="M165.333 172.63H236V242.667H165.333V172.63Z" fill="white"/>
</mask>
<g mask="url(#mask5_12_4)">
<path d="M200.62 241.807C219.693 241.807 235.198 226.307 235.198 207.234C235.198 188.161 219.693 172.63 200.62 172.63C181.552 172.63 166.047 188.135 166.047 207.208C166.047 226.276 181.552 241.807 200.62 241.807ZM200.62 175.375C218.182 175.375 232.453 189.646 232.453 207.208C232.453 224.766 218.182 239.036 200.62 239.036C183.057 239.036 168.792 224.766 168.792 207.208C168.792 189.646 183.057 175.375 200.62 175.375Z" fill="#F1DABF"/>
</g>
<mask id="mask6_12_4" style="mask-type:luminance" maskUnits="userSpaceOnUse" x="244" y="205" width="117" height="5">
<path d="M244 205.333H360.901V209.333H244V205.333Z" fill="white"/>
</mask>
<g mask="url(#mask6_12_4)">
<path d="M244.938 205.859H360.573V208.604H244.938V205.859Z" fill="#F1DABF"/>
</g>
<mask id="mask7_12_4" style="mask-type:luminance" maskUnits="userSpaceOnUse" x="40" y="205" width="118" height="5">
<path d="M40.4324 205.333H157.333V209.333H40.4324V205.333Z" fill="white"/>
</mask>
<g mask="url(#mask7_12_4)">
<path d="M40.6719 205.859H156.307V208.604H40.6719V205.859Z" fill="#F1DABF"/>
</g>
<mask id="mask8_12_4" style="mask-type:luminance" maskUnits="userSpaceOnUse" x="198" y="250" width="5" height="118">
<path d="M198.667 250.667H202.667V367.307H198.667V250.667Z" fill="white"/>
</mask>
<g mask="url(#mask8_12_4)">
<path d="M199.25 251.521H201.995V367.156H199.25V251.521Z" fill="#F1DABF"/>
</g>
<path d="M230.974 239.526L232.917 237.583L297.766 302.432L295.823 304.37L230.974 239.526Z" fill="#F1DABF"/>
<path d="M103.49 302.427L168.333 237.578L170.276 239.521L105.432 304.365L103.49 302.427Z" fill="#F1DABF"/>
<path d="M230.224 281.312L232.755 280.25L246.193 312.286L243.661 313.349L230.224 281.312Z" fill="#F1DABF"/>
<path d="M216.5 248.62L219.031 247.557L228.203 269.417L225.672 270.479L216.5 248.62Z" fill="#F1DABF"/>
<path d="M273.953 238.693L274.995 236.156L307.146 249.302L306.109 251.844L273.953 238.693Z" fill="#F1DABF"/>
<path d="M241.125 225.276L242.167 222.734L264.083 231.698L263.047 234.24L241.125 225.276Z" fill="#F1DABF"/>
<path d="M156.016 312.703L169.172 280.552L171.714 281.594L158.552 313.745L156.016 312.703Z" fill="#F1DABF"/>
<path d="M173.625 269.635L182.604 247.698L185.146 248.734L176.161 270.677L173.625 269.635Z" fill="#F1DABF"/>
<path d="M94.4739 250.26L126.51 236.823L127.568 239.354L95.5364 252.792L94.4739 250.26Z" fill="#F1DABF"/>
<path d="M137.375 232.266L159.234 223.094L160.297 225.625L138.432 234.797L137.375 232.266Z" fill="#F1DABF"/>
<path d="M45.3191 164.757V120.048H51.4441V139.278H75.0274V120.048H81.1524V164.757H75.0274V144.694H51.4441V164.757H45.3191Z" fill="#F1DABF"/>
<path d="M111.948 165.59C108.406 165.59 105.203 164.986 102.344 163.778C99.4946 162.559 97.0571 160.882 95.0311 158.757C93.0155 156.621 91.453 154.147 90.3436 151.34C89.2446 148.538 88.6978 145.538 88.6978 142.34C88.6978 139.189 89.2446 136.21 90.3436 133.403C91.453 130.585 93.0155 128.111 95.0311 125.986C97.0571 123.861 99.4946 122.205 102.344 121.007C105.203 119.814 108.406 119.215 111.948 119.215C115.474 119.215 118.661 119.814 121.51 121.007C124.37 122.205 126.807 123.861 128.823 125.986C130.849 128.111 132.417 130.585 133.531 133.403C134.64 136.21 135.198 139.21 135.198 142.403C135.198 145.559 134.64 148.538 133.531 151.34C132.417 154.147 130.849 156.621 128.823 158.757C126.807 160.882 124.37 162.559 121.51 163.778C118.661 164.986 115.474 165.59 111.948 165.59ZM111.948 160.153C114.375 160.153 116.635 159.71 118.719 158.819C120.802 157.918 122.62 156.663 124.177 155.048C125.729 153.423 126.932 151.543 127.781 149.403C128.625 147.252 129.052 144.897 129.052 142.34C129.052 139.83 128.625 137.486 127.781 135.319C126.932 133.142 125.739 131.252 124.198 129.653C122.667 128.059 120.849 126.83 118.739 125.965C116.64 125.09 114.375 124.653 111.948 124.653C109.474 124.653 107.187 125.09 105.094 125.965C103.01 126.83 101.203 128.059 99.6769 129.653C98.1457 131.252 96.953 133.142 96.0936 135.319C95.2446 137.486 94.8228 139.851 94.8228 142.403C94.8228 144.918 95.2446 147.252 96.0936 149.403C96.953 151.543 98.1457 153.423 99.6769 155.048C101.203 156.663 103.01 157.918 105.094 158.819C107.187 159.71 109.474 160.153 111.948 160.153Z" fill="#F1DABF"/>
<path d="M154.109 164.757C151.677 164.757 149.578 164.236 147.817 163.194C146.052 162.153 144.692 160.731 143.734 158.923C142.776 157.106 142.296 155.069 142.296 152.819V120.048H148.421V153.569C148.421 155.236 148.942 156.611 149.984 157.694C151.026 158.778 152.401 159.319 154.109 159.319H166.109V164.757H154.109Z" fill="#F1DABF"/>
<path d="M171.343 164.757V159.319H179.968V125.465H171.343V120.048H194.676V125.465H186.114V159.319H194.676V164.757H171.343Z" fill="#F1DABF"/>
<path d="M202.844 164.757V120.048H217.156C221.916 120.048 226.036 121.007 229.51 122.923C232.979 124.84 235.677 127.481 237.594 130.84C239.51 134.205 240.469 138.059 240.469 142.403C240.469 146.751 239.51 150.606 237.594 153.965C235.677 157.33 232.979 159.965 229.51 161.882C226.036 163.798 221.916 164.757 217.156 164.757H202.844ZM208.969 159.319H217.219C220.536 159.319 223.479 158.642 226.052 157.278C228.635 155.918 230.666 153.975 232.156 151.444C233.656 148.903 234.406 145.892 234.406 142.403C234.406 138.861 233.656 135.84 232.156 133.34C230.666 130.83 228.635 128.892 226.052 127.528C223.479 126.153 220.536 125.465 217.219 125.465H208.969V159.319Z" fill="#F1DABF"/>
<path d="M241.36 164.757L256.568 124.319C257.245 122.585 258.183 121.314 259.381 120.507C260.573 119.689 261.954 119.278 263.527 119.278C265.094 119.278 266.485 119.673 267.693 120.465C268.912 121.246 269.844 122.507 270.485 124.257L285.756 164.757H279.047L275.152 153.965H251.777L247.818 164.757H241.36ZM253.693 148.528H273.297L265.318 126.361C265.11 125.809 264.87 125.382 264.61 125.09C264.36 124.798 263.995 124.653 263.527 124.653C263.094 124.653 262.756 124.798 262.506 125.09C262.256 125.382 262.037 125.809 261.86 126.361L253.693 148.528Z" fill="#F1DABF"/>
<path d="M297.886 164.757C295.12 164.757 292.927 163.918 291.302 162.236C289.688 160.559 288.886 158.481 288.886 156.007C288.886 154.439 289.203 153.1 289.844 151.986C290.479 150.876 291.521 149.725 292.969 148.528L313.219 131.798C313.938 131.246 314.448 130.736 314.74 130.278C315.042 129.809 315.198 129.231 315.198 128.548C315.198 128.038 315.042 127.543 314.74 127.069C314.448 126.6 314.078 126.215 313.636 125.923C313.188 125.621 312.688 125.465 312.136 125.465H290.302V120.048H312.719C314.552 120.048 316.136 120.434 317.469 121.194C318.813 121.96 319.834 122.996 320.532 124.298C321.24 125.59 321.594 127.048 321.594 128.673C321.594 130.246 321.261 131.642 320.594 132.861C319.938 134.069 318.933 135.231 317.573 136.34L297.323 153.007C296.808 153.382 296.391 153.725 296.073 154.028C295.75 154.319 295.537 154.626 295.427 154.944C295.328 155.267 295.282 155.684 295.282 156.194C295.282 156.71 295.417 157.21 295.698 157.694C295.974 158.184 296.354 158.58 296.844 158.882C297.328 159.173 297.891 159.319 298.532 159.319H321.594V164.757H297.886Z" fill="#F1DABF"/>
<path d="M340.434 164.757C337.96 164.757 335.772 164.173 333.871 163.007C331.981 161.83 330.501 160.278 329.434 158.361C328.376 156.444 327.85 154.361 327.85 152.111C327.85 150.069 328.33 148.153 329.288 146.361C330.246 144.569 331.642 143.168 333.475 142.153C331.684 141.001 330.314 139.58 329.371 137.882C328.439 136.173 327.975 134.382 327.975 132.507C327.975 130.205 328.517 128.111 329.6 126.236C330.694 124.361 332.173 122.861 334.038 121.736C335.913 120.611 337.981 120.048 340.246 120.048H357.934V125.465H340.955C339.632 125.465 338.46 125.788 337.434 126.423C336.402 127.064 335.59 127.913 334.996 128.965C334.413 130.007 334.121 131.189 334.121 132.507C334.121 133.746 334.423 134.876 335.038 135.903C335.663 136.918 336.501 137.736 337.559 138.361C338.626 138.975 339.798 139.278 341.08 139.278H355.58V144.694H341.517C339.944 144.694 338.59 145.048 337.455 145.757C336.33 146.455 335.455 147.371 334.83 148.507C334.215 149.632 333.913 150.835 333.913 152.111C333.913 153.392 334.21 154.585 334.809 155.694C335.402 156.793 336.257 157.673 337.371 158.34C338.481 158.996 339.777 159.319 341.267 159.319H357.934V164.757H340.434Z" fill="#F1DABF"/>
</g>
<defs>
<clipPath id="clip0_12_4">
<rect width="402" height="402" fill="white"/>
</clipPath>
</defs>
</svg>
